<svg width="18" height="23" viewBox="0 0 18 23" fill="none" xmlns="http://www.w3.org/2000/svg">
<mask id="mask0_6_3928" style="mask-type:alpha" maskUnits="userSpaceOnUse" x="0" y="-1" width="19" height="24">
<g clip-path="url(#clip0_6_3928)">
<path d="M12.9576 1.76025C12.9411 2.00907 12.8641 2.16797 12.7511 2.36551C12.622 2.59957 12.5058 2.83383 12.403 3.08773C12.2537 3.45336 12.0773 3.79263 11.8979 4.13566C11.6362 4.6392 11.386 5.15204 11.1384 5.66668C10.8478 6.27036 10.5536 6.87062 10.2404 7.45615C10.019 7.87045 9.81114 8.29536 9.62545 8.73686C9.46114 9.12244 9.27186 9.49011 9.08796 9.86115C8.97891 10.0815 8.87062 10.3025 8.76225 10.5234C8.72358 10.6022 8.68491 10.6809 8.64622 10.7597C8.61933 10.8145 8.61933 10.8145 8.59189 10.8705C8.55747 10.9402 8.52277 11.0097 8.4878 11.079C8.40129 11.2507 8.32402 11.4203 8.25639 11.6053C8.16364 11.8438 8.05693 12.0627 7.94081 12.2836C7.76159 12.6249 7.59829 12.9748 7.43867 13.3311C7.32865 13.5766 7.21679 13.8203 7.10081 14.0614C6.99854 14.2742 6.89875 14.4882 6.80147 14.7047C6.68005 14.9742 6.55472 15.2404 6.42788 15.5059C6.14929 16.0896 5.8728 16.6726 5.61572 17.2719C5.28967 18.0315 4.94445 18.7767 4.57834 19.5066C4.37293 19.9166 4.17699 20.3324 3.99523 20.7598C3.93392 20.8988 3.86882 21.0336 3.80215 21.1687C3.68848 21.3999 3.57664 21.6324 3.46612 21.8661C3.4445 21.9117 3.4445 21.9117 3.42245 21.9583C3.3633 22.0832 3.30419 22.2081 3.24522 22.3332C3.20138 22.4261 3.15741 22.5189 3.11341 22.6117C3.09345 22.6541 3.09345 22.6541 3.0731 22.6975C3.01947 22.8103 2.97031 22.9066 2.89616 23C2.81581 23.0092 2.81581 23.0092 2.72444 23.0059C2.6941 23.005 2.66376 23.0042 2.6325 23.0033C2.59761 23.0017 2.59761 23.0017 2.56201 23C2.74554 22.4208 2.93421 21.8519 3.17046 21.3034C3.27132 21.0692 3.36478 20.8328 3.45306 20.5907C3.55363 20.3155 3.66163 20.0475 3.77561 19.7807C3.95825 19.3518 4.11998 18.9114 4.2812 18.4693C4.43173 18.0568 4.58865 17.6498 4.75251 17.2456C4.78971 17.1521 4.82685 17.0585 4.8639 16.9649C4.88864 16.9025 4.91339 16.8402 4.93815 16.7778C4.91736 16.7769 4.89658 16.7759 4.87516 16.775C4.78089 16.7705 4.68665 16.7654 4.5924 16.7602C4.55969 16.7588 4.52698 16.7574 4.49328 16.7559C4.46181 16.7541 4.43034 16.7522 4.39792 16.7504C4.35447 16.7482 4.35447 16.7482 4.31013 16.7459C4.23273 16.731 4.23273 16.731 4.12135 16.6374C4.09404 16.5341 4.09404 16.5341 4.07488 16.403C4.06739 16.3534 4.0599 16.3038 4.05218 16.2527C4.04443 16.1981 4.03667 16.1435 4.02868 16.0872C4.02016 16.0299 4.01164 15.9727 4.00287 15.9137C3.98437 15.7889 3.96606 15.6642 3.94802 15.5393C3.91925 15.3401 3.88984 15.1411 3.86033 14.9421C3.82436 14.6993 3.78854 14.4564 3.75291 14.2135C3.66644 13.6242 3.57746 13.0355 3.48812 12.4468C3.45553 12.232 3.42311 12.0171 3.39076 11.8022C3.30394 11.2257 3.21603 10.6495 3.12545 10.0738C3.10145 9.92028 3.07749 9.7667 3.05355 9.61312C3.03129 9.47132 3.00853 9.32965 2.98576 9.18797C2.97259 9.10364 2.95945 9.0193 2.94634 8.93496C2.94006 8.89695 2.93378 8.85895 2.92732 8.81979C2.8877 8.55985 2.8877 8.55985 2.97041 8.40352C3.06598 8.3857 3.06598 8.3857 3.18838 8.38536C3.2341 8.38492 3.27982 8.38448 3.32692 8.38402C3.37704 8.38427 3.42716 8.38456 3.47728 8.38488C3.52852 8.38479 3.57975 8.38465 3.63099 8.38448C3.73845 8.38427 3.8459 8.38457 3.95336 8.38523C4.09112 8.38602 4.22885 8.38557 4.36661 8.38472C4.47245 8.38422 4.57828 8.38438 4.68412 8.38474C4.73491 8.38484 4.7857 8.38472 4.83649 8.38439C4.9075 8.38404 4.97851 8.38468 5.04952 8.38536C5.11015 8.38553 5.11015 8.38553 5.17201 8.3857C5.27229 8.40352 5.27229 8.40352 5.33984 8.45693C5.40211 8.58044 5.4064 8.68488 5.41677 8.83037C5.42345 8.91886 5.42345 8.91886 5.43026 9.00915C5.43461 9.07354 5.43895 9.13793 5.44328 9.20232C5.44807 9.2682 5.45291 9.33408 5.45779 9.39996C5.4705 9.57319 5.4826 9.74648 5.49459 9.9198C5.50693 10.0967 5.51983 10.2736 5.53269 10.4504C5.55783 10.7973 5.58233 11.1442 5.60644 11.4912C5.7218 11.3534 5.79487 11.196 5.87329 11.0234C5.90609 10.9522 5.93892 10.881 5.97176 10.8098C5.99009 10.77 6.00841 10.7302 6.02729 10.6891C6.13594 10.4543 6.2461 10.2206 6.35616 9.98687C6.3945 9.90541 6.43282 9.82392 6.47112 9.74243C6.50743 9.66522 6.50743 9.66522 6.54448 9.58645C6.56784 9.53677 6.5912 9.48708 6.61526 9.43589C6.69638 9.26439 6.77873 9.09386 6.86161 8.92371C6.90355 8.82981 6.93425 8.73829 6.9639 8.63744C7.01727 8.49709 7.01727 8.49709 7.09 8.441C7.25428 8.38647 7.40895 8.40266 7.57766 8.41211C7.65268 8.41413 7.72771 8.41592 7.80274 8.4175C7.9203 8.42017 8.03744 8.42394 8.15487 8.43159C8.59542 8.47367 8.59542 8.47367 8.99316 8.27984C9.13828 8.09347 9.24689 7.88321 9.34909 7.6571C9.41029 7.52497 9.4816 7.40751 9.55584 7.28656C9.64773 7.12639 9.73302 6.96324 9.81573 6.79534C9.92327 6.57914 10.0413 6.37781 10.166 6.17688C10.4682 5.68917 10.7595 5.18921 11.0389 4.68039C11.1812 4.42234 11.3271 4.16754 11.4725 3.9123C11.4918 3.87845 11.5111 3.8446 11.531 3.80973C11.7561 3.41492 11.9828 3.02216 12.2152 2.63415C12.3616 2.38649 12.5021 2.13367 12.6351 1.87428C12.7369 1.68893 12.7937 1.71133 12.9576 1.76025Z" fill="#303030"/>
<path d="M12.4007 10.2281C12.4338 10.2386 12.467 10.2492 12.5012 10.26C12.6756 10.3163 12.8495 10.3751 13.0224 10.4386C13.0641 10.4538 13.0641 10.4538 13.1067 10.4693C13.1919 10.515 13.2338 10.5582 13.2917 10.6491C13.2805 10.7914 13.2632 10.9178 13.2378 11.0563C13.2307 11.0975 13.2236 11.1386 13.2163 11.1811C13.1928 11.3159 13.1682 11.4504 13.1432 11.5848C13.1348 11.6299 13.1265 11.6751 13.1179 11.7215C13.0571 12.0469 12.9936 12.3715 12.9297 12.6959C12.9107 12.7931 12.8917 12.8902 12.8727 12.9874C12.8269 13.2217 12.7809 13.4559 12.7348 13.6901C12.5623 13.7451 12.5623 13.7451 12.4437 13.6711C12.4058 13.6387 12.3678 13.6064 12.3287 13.5731C11.7955 13.1347 11.2767 12.8398 10.6325 12.8392C10.5854 12.8383 10.5854 12.8383 10.5373 12.8375C10.507 12.8374 10.4767 12.8373 10.4454 12.8372C10.418 12.837 10.3907 12.8368 10.3625 12.8366C10.2736 12.8495 10.2132 12.886 10.1359 12.9415C10.1719 12.9569 10.2079 12.9723 10.245 12.9881C10.7784 13.2236 11.2738 13.5356 11.6952 14.0176C11.7296 14.0565 11.764 14.0955 11.7994 14.1356C12.1586 14.5637 12.4631 15.0988 12.491 15.7407C12.4919 15.8184 12.4919 15.896 12.4912 15.9737C12.4908 16.0147 12.4905 16.0556 12.4902 16.0979C12.4769 16.7459 12.2672 17.2704 11.9157 17.7398C10.8703 18.988 9.45346 19.3494 8.05558 19.3156C6.69019 19.2663 6.69019 19.2663 6.34893 18.8363C6.33338 18.5823 6.36867 18.36 6.41681 18.1159C6.42387 18.0788 6.43094 18.0417 6.43821 18.0034C6.46078 17.8852 6.48374 17.7672 6.50672 17.6491C6.52159 17.5717 6.53643 17.4943 6.55125 17.4169C6.58056 17.2637 6.61005 17.1107 6.63964 16.9577C6.66903 16.8052 6.69776 16.6525 6.72593 16.4996C6.73608 16.4446 6.73608 16.4446 6.74643 16.3885C6.7592 16.319 6.77189 16.2495 6.78449 16.18C6.82753 15.9459 6.82753 15.9459 6.86871 15.8421C7.01424 15.857 7.12866 15.9069 7.25855 15.9854C7.47105 16.1112 7.68819 16.2163 7.90827 16.3187C7.94218 16.3349 7.97609 16.351 8.01103 16.3676C8.53375 16.6082 9.08413 16.7049 9.61612 16.4503C9.65288 16.4194 9.68963 16.3886 9.7275 16.3567C9.49492 16.1625 9.25625 16.0185 9.0012 15.8772C8.38706 15.528 7.74492 15.1383 7.37631 14.3895C7.32868 14.2153 7.32664 14.0847 7.3892 13.9149C7.44287 13.7948 7.49956 13.678 7.55789 13.5614C7.57836 13.5195 7.59883 13.4775 7.61992 13.4343C7.73906 13.192 7.86361 12.9566 7.99631 12.7257C8.11335 12.5096 8.21113 12.2786 8.31272 12.0506C8.43177 11.7853 8.5547 11.5229 8.6789 11.2615C8.70933 11.1971 8.73949 11.1325 8.76936 11.0677C8.81111 10.9773 8.85381 10.8877 8.89678 10.7983C8.921 10.7468 8.94522 10.6954 8.97017 10.6424C9.16091 10.3562 9.42531 10.2871 9.70662 10.2193C9.73613 10.2116 9.76563 10.2039 9.79603 10.196C10.6093 9.99006 11.5945 9.96315 12.4007 10.2281Z" fill="#303030"/>
<path d="M12.9574 1.76024C12.9412 2.02507 12.8579 2.18219 12.7393 2.39182C12.6252 2.59685 12.522 2.79541 12.4376 3.0234C12.3634 2.88305 12.3634 2.88305 12.3634 2.69591C12.3473 2.71907 12.3312 2.74223 12.3147 2.76609C12.252 2.83627 12.252 2.83627 12.1406 2.83627C12.178 2.68067 12.2295 2.57497 12.3147 2.45615C12.4442 2.2749 12.5413 2.0741 12.6413 1.86587C12.7375 1.68519 12.8007 1.71346 12.9574 1.76024Z" fill="#303030"/>
<path d="M12.9573 1.76025C12.9393 2.01516 12.9393 2.01516 12.8529 2.13159C12.7716 2.1813 12.7716 2.1813 12.6881 2.16668C12.6667 2.15606 12.6452 2.14545 12.6231 2.13451C12.5619 2.22715 12.5006 2.31978 12.4375 2.41522C12.4375 2.23542 12.4858 2.16175 12.5628 2.01171C12.5977 1.94278 12.5977 1.94278 12.6333 1.87245C12.7374 1.69016 12.7935 1.71135 12.9573 1.76025Z" fill="#303030"/>
<path d="M10.47 5.69006C10.4822 5.72094 10.4945 5.75182 10.5071 5.78363C10.4793 5.86843 10.4793 5.86843 10.4328 5.97077C10.4168 6.00936 10.4007 6.04796 10.3841 6.08772C10.3138 6.21899 10.2337 6.2938 10.1358 6.39182C10.1105 6.45384 10.0856 6.51615 10.0616 6.57895C10.0248 6.59439 9.98807 6.60983 9.9502 6.62574C10.0086 6.38573 10.1273 6.21662 10.2519 6.02632C10.2728 5.99391 10.2937 5.96149 10.3152 5.92809C10.3666 5.84854 10.4182 5.76921 10.47 5.69006Z" fill="#303030"/>
<path d="M8.8365 15.5614C8.861 15.6232 8.8855 15.6849 8.91075 15.7485C8.9498 15.7427 8.98886 15.737 9.02909 15.731C9.17064 15.7485 9.17064 15.7485 9.22923 15.811C9.27452 15.8809 9.31572 15.9549 9.35628 16.0292C9.12591 15.9387 8.90673 15.8301 8.68799 15.7018C8.737 15.6863 8.786 15.6709 8.8365 15.655C8.8365 15.6241 8.8365 15.5932 8.8365 15.5614Z" fill="#303030"/>
<path d="M8.68764 11.2573C8.73747 11.3829 8.71378 11.4324 8.68068 11.5643C8.67173 11.602 8.66278 11.6397 8.65356 11.6786C8.61339 11.7719 8.61339 11.7719 8.53493 11.8083C8.50025 11.8135 8.50025 11.8135 8.46488 11.8187C8.46488 11.865 8.46488 11.9114 8.46488 11.9591C8.44038 11.9591 8.41587 11.9591 8.39062 11.9591C8.4416 11.786 8.50437 11.6339 8.5809 11.4766C8.60091 11.4353 8.62091 11.394 8.64152 11.3514C8.65674 11.3204 8.67196 11.2893 8.68764 11.2573Z" fill="#737273"/>
<path d="M11.7692 3.39767C11.7815 3.42855 11.7937 3.45943 11.8063 3.49124C11.7401 3.70083 11.6612 3.87489 11.5163 4.00879C11.4895 4.02326 11.4627 4.03773 11.4351 4.05265C11.4925 3.89606 11.5647 3.7604 11.6439 3.6199C11.6673 3.57816 11.6908 3.53643 11.715 3.49343C11.7418 3.44603 11.7418 3.44603 11.7692 3.39767Z" fill="#303030"/>
<path d="M10.0613 10.1813C10.049 10.2122 10.0368 10.2431 10.0242 10.2749C9.98742 10.2749 9.95066 10.2749 9.91279 10.2749C9.90054 10.3057 9.88829 10.3366 9.87567 10.3684C9.83891 10.3916 9.83891 10.3916 9.80141 10.4152C9.80141 10.3843 9.80141 10.3535 9.80141 10.3216C9.7034 10.3216 9.60538 10.3216 9.50439 10.3216C9.50439 10.3062 9.50439 10.2908 9.50439 10.2749C9.69281 10.2158 9.86557 10.1686 10.0613 10.1813Z" fill="#303030"/>
<path d="M6.86867 15.8421C7.08215 15.8772 7.08215 15.8772 7.16569 15.9825C7.12893 15.9825 7.09218 15.9825 7.05431 15.9825C7.04205 16.0133 7.0298 16.0442 7.01718 16.076C6.98042 16.076 6.94367 16.076 6.9058 16.076C6.86904 16.0992 6.86904 16.0992 6.83154 16.1228C6.84379 16.0302 6.85605 15.9375 6.86867 15.8421Z" fill="#303030"/>
<path d="M9.91317 6.62573C9.93768 6.68749 9.96218 6.74924 9.98743 6.81287C9.92716 6.89281 9.86516 6.97074 9.80179 7.04679C9.77729 7.04679 9.75279 7.04679 9.72754 7.04679C9.77392 6.88495 9.82686 6.75921 9.91317 6.62573Z" fill="#303030"/>
<path d="M10.7296 5.22223C10.7419 5.28398 10.7541 5.34574 10.7667 5.40936C10.73 5.4248 10.6932 5.44024 10.6553 5.45615C10.6431 5.53334 10.6308 5.61053 10.6182 5.69007C10.5815 5.69007 10.5447 5.69007 10.5068 5.69007C10.5577 5.50316 10.6278 5.37193 10.7296 5.22223Z" fill="#303030"/>
<path d="M4.04695 19.1169C4.0592 19.1169 4.07145 19.1169 4.08407 19.1169C4.0926 19.2745 4.09668 19.3702 4.03302 19.5088C4.01311 19.5338 3.9932 19.5589 3.97269 19.5848C3.94819 19.5848 3.92368 19.5848 3.89844 19.5848C3.93963 19.4217 3.98247 19.2678 4.04695 19.1169Z" fill="#303030"/>
<path d="M10.2101 6.11111C10.2101 6.2554 10.1974 6.29996 10.1428 6.42106C10.1303 6.44964 10.1178 6.47823 10.1049 6.50768C10.0616 6.57895 10.0616 6.57895 9.9502 6.62573C10.0054 6.41085 10.0931 6.27787 10.2101 6.11111Z" fill="#989496"/>
<path d="M12.6232 1.90057C12.6354 1.93145 12.6477 1.96233 12.6603 1.99414C12.5987 2.18614 12.5408 2.30534 12.4004 2.41519C12.4542 2.22293 12.5307 2.06747 12.6232 1.90057Z" fill="#303030"/>
<path d="M12.0294 17.1988C12.0416 17.2297 12.0539 17.2606 12.0665 17.2924C12.1033 17.277 12.14 17.2615 12.1779 17.2456C12.1315 17.4165 12.1159 17.4693 11.9923 17.5731C11.9876 17.3041 11.9876 17.3041 12.0294 17.1988Z" fill="#696768"/>
<path d="M8.8365 15.5614C8.861 15.6232 8.8855 15.6849 8.91075 15.7485C8.93526 15.7485 8.95976 15.7485 8.98501 15.7485C8.98501 15.7794 8.98501 15.8103 8.98501 15.8421C8.77152 15.7602 8.77152 15.7602 8.68799 15.655C8.737 15.655 8.786 15.655 8.8365 15.655C8.8365 15.6241 8.8365 15.5932 8.8365 15.5614Z" fill="#767575"/>
<path d="M9.91312 7.79532C9.94988 7.79532 9.98663 7.79532 10.0245 7.79532C9.98463 7.9317 9.95849 8.01886 9.87599 8.1228C9.85279 8.03801 9.85279 8.03801 9.83887 7.93567C9.86337 7.88935 9.88788 7.84304 9.91312 7.79532Z" fill="#303030"/>
<path d="M9.50448 7.37427C9.53233 7.45614 9.53233 7.45614 9.54161 7.5614C9.47432 7.66667 9.47432 7.66667 9.3931 7.74854C9.3686 7.74854 9.34409 7.74854 9.31885 7.74854C9.36977 7.61033 9.42981 7.49403 9.50448 7.37427Z" fill="#303030"/>
<path d="M12.1404 3.49124C12.1527 3.52212 12.1649 3.553 12.1775 3.58481C12.104 3.72376 12.104 3.72376 12.029 3.86551C11.9943 3.72468 11.9903 3.68462 12.029 3.53803C12.0658 3.52259 12.1025 3.50715 12.1404 3.49124Z" fill="#706E6F"/>
<path d="M2.85894 22.1111C2.87119 22.1729 2.88344 22.2346 2.89607 22.2982C2.90832 22.3291 2.92057 22.36 2.93319 22.3918C2.90869 22.3918 2.88419 22.3918 2.85894 22.3918C2.85894 22.4227 2.85894 22.4536 2.85894 22.4854C2.82218 22.5008 2.78543 22.5163 2.74756 22.5322C2.78431 22.3932 2.82107 22.2543 2.85894 22.1111Z" fill="#303030"/>
</g>
</mask>
<g mask="url(#mask0_6_3928)">
<rect x="-36" y="-30" width="80" height="67" fill="white"/>
</g>
<defs>
<clipPath id="clip0_6_3928">
<rect width="18.0438" height="24" fill="white" transform="translate(0 -1)"/>
</clipPath>
</defs>
</svg>
