<?xml version="1.0" encoding="UTF-8"?>
<svg version="1.1" xmlns="http://www.w3.org/2000/svg" width="486" height="513">
<path d="M0 0 C-0.44522957 5.31846964 -2.51923201 8.71512671 -5.5625 12.9375 C-9.0395147 17.94038995 -12.16930816 22.94778242 -14.9375 28.375 C-18.95909331 36.1901634 -23.71006048 43.44213043 -28.54248047 50.77441406 C-35.59124396 61.53765159 -42.32976694 72.4996458 -49 83.5 C-56.82616018 96.40366211 -64.75165781 109.2342061 -73.1875 121.75 C-79.15131029 130.60549857 -84.74869566 139.68801503 -89.75 149.125 C-94.17576984 157.36692952 -99.27385981 165.22584275 -104.22705078 173.15673828 C-107.16436468 177.86728052 -110.08107545 182.5905494 -113 187.3125 C-114.04140724 188.99625423 -115.08306177 190.67985555 -116.125 192.36328125 C-116.84937256 193.53515991 -116.84937256 193.53515991 -117.58837891 194.73071289 C-118.5156825 196.22142319 -119.45005711 197.70776256 -120.39208984 199.18920898 C-122.72204326 202.85752698 -124.80338331 206.48282893 -126.625 210.4375 C-129.12315729 215.53578018 -131.99735828 220.21469503 -135.125 224.9375 C-139.95219178 232.23223669 -144.35044939 239.71023408 -148.64990234 247.32617188 C-151.61318646 252.57492146 -154.62605417 257.78275071 -157.75 262.9375 C-160.50449767 267.48531261 -163.19215911 272.06020396 -165.8125 276.6875 C-169.08280474 282.4479175 -172.45863522 288.13759537 -175.875 293.8125 C-183.37854934 306.28948208 -190.82568796 318.7519561 -197.75 331.5625 C-206.53185451 347.7970943 -215.83020627 363.72581545 -225.69140625 379.328125 C-231.22401256 388.09218581 -236.5014086 396.97971418 -241.39697266 406.11523438 C-243.04831727 409.08695049 -244.80172707 411.9689469 -246.59765625 414.85546875 C-249.65930429 419.79806586 -252.67162505 424.76758309 -255.6484375 429.76171875 C-256.23059273 430.73715637 -256.23059273 430.73715637 -256.82450867 431.7322998 C-258.41761272 434.4023614 -260.00981076 437.072947 -261.59814453 439.74584961 C-262.7789338 441.73189456 -263.9633777 443.7157199 -265.1484375 445.69921875 C-265.68590103 446.6068824 -265.68590103 446.6068824 -266.23422241 447.53288269 C-267.67866977 449.94537731 -269.00268722 452.00268722 -271 454 C-273.1640625 454.1953125 -273.1640625 454.1953125 -275.625 454.125 C-276.44226563 454.10695313 -277.25953125 454.08890625 -278.1015625 454.0703125 C-279.04128906 454.03550781 -279.04128906 454.03550781 -280 454 C-275.05677766 441.61969171 -269.97495293 429.45906964 -263.61181641 417.73510742 C-260.89503722 412.72841059 -258.37776882 407.67595648 -256 402.5 C-253.29142034 396.6176967 -250.38232678 390.88904212 -247.3125 385.1875 C-242.3929639 376.01857236 -238.03697337 366.60597542 -233.69458008 357.15551758 C-229.64012564 348.33978034 -225.41370844 339.64004247 -221 331 C-219.99803585 329.00098328 -218.99778209 327.00110742 -218 325 C-217.333453 323.66660684 -216.66680945 322.33326193 -216 321 C-216.55985596 320.98018066 -217.11971191 320.96036133 -217.6965332 320.93994141 C-220.23565854 320.84462217 -222.77396888 320.73497247 -225.3125 320.625 C-226.19357422 320.5940625 -227.07464844 320.563125 -227.98242188 320.53125 C-228.82998047 320.49257813 -229.67753906 320.45390625 -230.55078125 320.4140625 C-231.72120972 320.36693115 -231.72120972 320.36693115 -232.9152832 320.31884766 C-235 320 -235 320 -238 318 C-238.73558044 315.79170227 -238.73558044 315.79170227 -239.25170898 312.98950195 C-239.45346741 311.92923294 -239.65522583 310.86896393 -239.86309814 309.77656555 C-240.07198669 308.60893173 -240.28087524 307.44129791 -240.49609375 306.23828125 C-240.72552673 305.01429123 -240.95495972 303.79030121 -241.19134521 302.52922058 C-241.6894324 299.86280345 -242.18284718 297.19599921 -242.66854858 294.52734375 C-243.44351108 290.26980649 -244.23559378 286.01556793 -245.03051758 281.76171875 C-245.99929762 276.57163824 -246.96409166 271.38084866 -247.92376995 266.18907738 C-250.25290561 253.59219176 -252.64954459 241.0084567 -255.05564785 228.42608356 C-255.93363198 223.8336946 -256.80683817 219.24042091 -257.67797852 214.64672852 C-260.01660612 202.32329113 -262.38442886 190.0069588 -264.82421875 177.703125 C-265.47046569 174.42064231 -266.11575333 171.1379727 -266.76065063 167.85522461 C-267.36033345 164.82413197 -267.97328843 161.795923 -268.58666992 158.76757812 C-268.94128727 156.9649803 -269.29525227 155.16225397 -269.6484375 153.359375 C-269.81748093 152.54704407 -269.98652435 151.73471313 -270.16069031 150.89776611 C-271.22764697 145.34147046 -271.22764697 145.34147046 -269 142 C-266.42591858 141.61904907 -266.42591858 141.61904907 -263.12915039 141.61181641 C-261.89769791 141.60235992 -260.66624542 141.59290344 -259.3974762 141.5831604 C-258.04753296 141.58853053 -256.69759264 141.59468358 -255.34765625 141.6015625 C-253.96764471 141.59954217 -252.58763422 141.59663108 -251.20762634 141.59286499 C-248.31320039 141.58843816 -245.41905193 141.59488285 -242.5246582 141.60888672 C-238.81426634 141.62596328 -235.1045262 141.6161501 -231.39415836 141.59816933 C-228.54340203 141.58732724 -225.6928001 141.59077996 -222.84203911 141.5985527 C-221.47409424 141.60055439 -220.10613537 141.5980965 -218.73820686 141.59111404 C-216.82555535 141.58349534 -214.91285473 141.59716672 -213.00024414 141.61181641 C-211.3671505 141.61539658 -211.3671505 141.61539658 -209.70106506 141.61904907 C-207 142 -207 142 -205.18069458 143.14152527 C-203.50344902 145.7815971 -203.38796584 148.01398033 -203.10864258 151.1237793 C-202.9287957 153.01540047 -202.9287957 153.01540047 -202.74531555 154.94523621 C-202.62809965 156.32153924 -202.51117848 157.6978674 -202.39453125 159.07421875 C-202.26547142 160.48251469 -202.13522149 161.89070204 -202.00382996 163.29878235 C-201.66152933 167.00165507 -201.33541234 170.70578175 -201.01263428 174.41040039 C-200.68028643 178.1918074 -200.33266779 181.97180657 -199.98632812 185.75195312 C-199.30925759 193.16667474 -198.64927634 200.58278732 -198 208 C-194.89281043 205.05385882 -192.92468545 201.69020986 -190.8125 198 C-189.92908858 196.47745638 -189.04491817 194.95535299 -188.16015625 193.43359375 C-187.66660645 192.58265137 -187.17305664 191.73170898 -186.66455078 190.85498047 C-183.73820785 185.83581734 -180.77114759 180.84072764 -177.80673218 175.84399414 C-176.77388794 174.10277153 -175.74193312 172.3610248 -174.71020508 170.61914062 C-173.73216919 168.96881836 -173.73216919 168.96881836 -172.734375 167.28515625 C-172.10523193 166.22312988 -171.47608887 165.16110352 -170.82788086 164.06689453 C-168.64303479 160.40106893 -166.42491897 156.7560095 -164.19262695 153.11889648 C-163.06293936 151.11182205 -162.23611979 149.15563982 -161.4375 147 C-160 144 -160 144 -158.04101562 142.80102539 C-153.61632254 141.6355294 -149.45041985 141.98154135 -144.90625 142.18359375 C-142.88551051 142.22666022 -140.86466383 142.26491487 -138.84375 142.29882812 C-135.67737659 142.3558248 -132.52216175 142.43635436 -129.359375 142.59985352 C-117.49347771 143.49928921 -117.49347771 143.49928921 -106.78045654 139.35620117 C-102.87162614 135.37258524 -99.94631136 130.87839128 -97.19378662 126.04525757 C-95.54531431 123.22100874 -93.62466563 120.71031381 -91.625 118.125 C-89.15002199 114.70128042 -86.85263955 111.21397484 -84.625 107.625 C-81.72857189 103.00373268 -78.54913674 98.70043069 -75.19067383 94.40551758 C-67.05115473 83.98079468 -59.20502503 73.29414065 -51.6796875 62.41796875 C-47.84800736 56.90213153 -43.91648076 51.45580727 -40 46 C-39.48066895 45.27651367 -38.96133789 44.55302734 -38.42626953 43.80761719 C-32.36312264 35.36864034 -26.25662159 26.97345099 -19.99609375 18.6796875 C-16.05281918 13.38597644 -12.26964172 7.98191789 -8.6875 2.4375 C-5.94457992 -1.52449567 -4.41491656 -1.04563813 0 0 Z " fill="#070707" transform="translate(349,59)"/>
<path d="M0 0 C0.89332031 0.22526367 1.78664063 0.45052734 2.70703125 0.68261719 C7.4055102 1.88554102 12.08988725 3.14221764 16.74609375 4.5 C17.87035767 4.82484375 17.87035767 4.82484375 19.01733398 5.15625 C21.31291106 6.13316348 22.4415012 7.05602214 24 9 C23.69855443 12.04157801 23.23210399 14.74334316 22.546875 17.703125 C22.35647644 18.583172 22.16607788 19.46321899 21.96990967 20.36993408 C21.33671009 23.25249076 20.67318312 26.12652963 20 29 C19.77481689 29.96446045 19.54963379 30.9289209 19.31762695 31.92260742 C17.68072203 38.87815146 15.97166685 45.81504059 14.25 52.75 C13.73788201 54.82672451 13.22616132 56.90354703 12.71484375 58.98046875 C11.48111714 63.98811538 10.24210063 68.99442421 9 74 C4.35498047 75.17578125 4.35498047 75.17578125 1.16015625 73.59375 C0.13792969 72.9028125 -0.88429688 72.211875 -1.9375 71.5 C-16.29843653 62.12975824 -30.27243039 55.82584813 -47.625 55.8125 C-48.8934375 55.79413086 -48.8934375 55.79413086 -50.1875 55.77539062 C-51.00476563 55.77345703 -51.82203125 55.77152344 -52.6640625 55.76953125 C-53.40092285 55.76542236 -54.1377832 55.76131348 -54.89697266 55.75708008 C-57.29190606 56.03371796 -58.91827756 56.81334178 -61 58 C-60.030625 58.32871094 -59.06125 58.65742188 -58.0625 58.99609375 C-43.69584794 64.02858255 -30.35105724 70.69788534 -19 81 C-18.07445312 81.83273437 -17.14890625 82.66546875 -16.1953125 83.5234375 C-6.5195972 92.67472379 1.68110645 104.11085253 2.43359375 117.83203125 C2.45714087 119.49202101 2.45793066 121.15246896 2.4375 122.8125 C2.42920166 123.6883374 2.42090332 124.5641748 2.41235352 125.46655273 C2.05277882 139.31849606 -3.59357719 150.53036989 -13.0625 160.5625 C-41.21972189 187.24277793 -79.38134225 194.96753698 -117.03230286 194.24606323 C-153.80847653 193.19152347 -153.80847653 193.19152347 -163 184 C-163.41904617 178.57035888 -162.46829906 173.81878036 -161.171875 168.6015625 C-160.98159729 167.80833588 -160.79131958 167.01510925 -160.59527588 166.19784546 C-159.98759564 163.67170441 -159.36910254 161.14836321 -158.75 158.625 C-158.34952182 156.97023066 -157.94977646 155.31528379 -157.55078125 153.66015625 C-156.76128175 150.38732929 -155.96691332 147.11573621 -155.16992188 143.84472656 C-154.37842907 140.58479642 -153.60448705 137.32140856 -152.84570312 134.05371094 C-152.57237152 132.87764786 -152.57237152 132.87764786 -152.29351807 131.67782593 C-151.9496417 130.19300286 -151.60786052 128.70769251 -151.26849365 127.22183228 C-150.10938412 122.21876824 -150.10938412 122.21876824 -149 120 C-145.08021515 120.31782039 -141.99849198 121.38367454 -138.5 123.0625 C-132.77631333 125.75137478 -126.92781265 127.99741408 -121 130.1875 C-120.08669922 130.53240479 -119.17339844 130.87730957 -118.23242188 131.23266602 C-104.15320639 136.37399497 -89.32897298 138.44201413 -75 133 C-74.01 132.34 -73.02 131.68 -72 131 C-78.26448033 126.84856846 -84.6930153 123.77074778 -91.5625 120.75 C-108.10411666 113.28542595 -125.39981194 104.95682495 -135.328125 88.94921875 C-136.61104244 85.22726641 -136.66602179 82.43432437 -134.98095703 78.80541992 C-133.53530628 76.23828678 -132.00860424 73.74230463 -130.4375 71.25 C-129.88610352 70.3532959 -129.33470703 69.4565918 -128.76660156 68.53271484 C-125.55772355 63.3534235 -122.20295881 58.32149493 -118.62890625 53.38671875 C-115.47637487 48.76754208 -112.84278565 43.829149 -110.10644531 38.95654297 C-106.89991355 33.2863873 -103.58891476 27.67755627 -100.24365234 22.08837891 C-99.42412218 20.71219889 -98.61175013 19.33172709 -97.80712891 17.94677734 C-96.68258902 16.01460906 -95.53246525 14.10007717 -94.375 12.1875 C-93.72273438 11.08792969 -93.07046875 9.98835937 -92.3984375 8.85546875 C-87.26084956 2.73889418 -80.13953996 1.26186115 -72.5625 -0.1875 C-71.76779297 -0.35185547 -70.97308594 -0.51621094 -70.15429688 -0.68554688 C-48.25035433 -5.08772247 -21.71307199 -5.66300391 0 0 Z " fill="#050505" transform="translate(334,240)"/>
<path d="M0 0 C-0.43677732 5.66063408 -2.67961136 9.01921423 -5.875 13.5 C-8.94712613 17.88242776 -11.72879867 22.12669384 -14 27 C-16 24 -16 24 -16 20 C-16.433125 20.495 -16.86625 20.99 -17.3125 21.5 C-19 23 -19 23 -22 23 C-20.99215729 19.67411904 -19.60746216 17.41475812 -17.3125 14.875 C-13.82399448 11.00078749 -11.20798769 6.70870038 -8.515625 2.2578125 C-5.9230442 -1.60433107 -4.22199783 -0.99994686 0 0 Z " fill="#1D1B1E" transform="translate(349,59)"/>
<path d="M0 0 C-0.48433531 5.44877223 -0.48433531 5.44877223 -2.8125 7.9375 C-5 9 -5 9 -7.25 8.6875 C-7.8275 8.460625 -8.405 8.23375 -9 8 C-10.65 9.98 -12.3 11.96 -14 14 C-14 10.15691635 -12.69820792 8.58212572 -10.625 5.375 C-9.68527344 3.90160156 -9.68527344 3.90160156 -8.7265625 2.3984375 C-5.92152341 -1.49815526 -4.4124767 -1.04506027 0 0 Z " fill="#2A282C" transform="translate(349,59)"/>
<path d="M0 0 C0.33 0.66 0.66 1.32 1 2 C0.25 3.8125 0.25 3.8125 -1 6 C-1.433125 6.825 -1.86625 7.65 -2.3125 8.5 C-4.20636046 11.3057192 -6.36407918 12.90478089 -9 15 C-9.68177416 16.32567199 -10.35191436 17.65753688 -11 19 C-11.99 19.33 -12.98 19.66 -14 20 C-12.42611782 14.869941 -9.23031385 11.25513685 -5.875 7.1875 C-5.31167969 6.49462891 -4.74835938 5.80175781 -4.16796875 5.08789062 C-2.784086 3.38735674 -1.39470449 1.69166006 0 0 Z " fill="#434143" transform="translate(282,143)"/>
<path d="M0 0 C0.66 1.32 1.32 2.64 2 4 C3.051875 3.87625 4.10375 3.7525 5.1875 3.625 C9 4 9 4 10.578125 5.3359375 C11.79800867 6.82924338 12.907601 8.411056 14 10 C7.79522136 8.06375702 1.89174281 5.74390859 -4 3 C-2.68 2.67 -1.36 2.34 0 2 C0 1.34 0 0.68 0 0 Z " fill="#666263" transform="translate(238,354)"/>
<path d="M0 0 C1.34201604 2.68403208 0.70405525 3.7430131 -0.1875 6.5625 C-0.42855469 7.36816406 -0.66960937 8.17382812 -0.91796875 9.00390625 C-2 11 -2 11 -4.11328125 11.77734375 C-5.04720703 11.88755859 -5.04720703 11.88755859 -6 12 C-6 12.99 -6 13.98 -6 15 C-6.66 15 -7.32 15 -8 15 C-6.62712658 11.30123909 -4.93644547 8.0485524 -2.875 4.6875 C-2.33617187 3.80449219 -1.79734375 2.92148437 -1.2421875 2.01171875 C-0.83226562 1.34785156 -0.42234375 0.68398438 0 0 Z " fill="#737273" transform="translate(234,262)"/>
<path d="M0 0 C0.33 0.66 0.66 1.32 1 2 C-0.78515145 6.47988006 -2.90963595 10.2003997 -6.8125 13.0625 C-7.534375 13.371875 -8.25625 13.68125 -9 14 C-7.45158425 10.65291949 -5.50894136 7.75332488 -3.375 4.75 C-2.74335938 3.85796875 -2.11171875 2.9659375 -1.4609375 2.046875 C-0.73777344 1.03367187 -0.73777344 1.03367187 0 0 Z " fill="#646262" transform="translate(317,94)"/>
<path d="M0 0 C-0.33 0.66 -0.66 1.32 -1 2 C-1.99 2 -2.98 2 -4 2 C-4.33 2.66 -4.66 3.32 -5 4 C-5.99 4.495 -5.99 4.495 -7 5 C-7 4.34 -7 3.68 -7 3 C-9.64 3 -12.28 3 -15 3 C-15 2.67 -15 2.34 -15 2 C-9.92523206 0.73694665 -5.27203646 -0.27036084 0 0 Z " fill="#454045" transform="translate(271,239)"/>
<path d="M0 0 C5.75 0.75 5.75 0.75 8 3 C7.01 3 6.02 3 5 3 C4.67 3.66 4.34 4.32 4 5 C3.01 5 2.02 5 1 5 C0.01 5.495 0.01 5.495 -1 6 C-0.67 4.02 -0.34 2.04 0 0 Z " fill="#201E1F" transform="translate(185,360)"/>
<path d="M0 0 C0.66 1.32 1.32 2.64 2 4 C0.37660195 5.70884005 -1.29319053 7.37446717 -3 9 C-3.66 9 -4.32 9 -5 9 C-3.7508258 5.54074837 -2.32472205 2.85306797 0 0 Z " fill="#636263" transform="translate(267,163)"/>
<path d="M0 0 C0.33 1.32 0.66 2.64 1 4 C0.01 4.33 -0.98 4.66 -2 5 C-2.33 6.65 -2.66 8.3 -3 10 C-3.99 10 -4.98 10 -6 10 C-4.6302836 6.00499382 -2.74277578 3.19990508 0 0 Z " fill="#4C4A4C" transform="translate(289,133)"/>
<path d="M0 0 C0.33 0 0.66 0 1 0 C1.2295711 3.36704285 1.33943529 5.41370268 -0.375 8.375 C-0.91125 8.91125 -1.4475 9.4475 -2 10 C-2.66 10 -3.32 10 -4 10 C-2.8905928 6.51329166 -1.73662334 3.22515763 0 0 Z " fill="#2B292A" transform="translate(109,430)"/>
<path d="M0 0 C0.33 0 0.66 0 1 0 C1.08153933 1.58246707 1.13943557 3.16616273 1.1875 4.75 C1.23970703 6.07257813 1.23970703 6.07257813 1.29296875 7.421875 C0.94923684 10.44671583 -0.00227459 11.75583602 -2 14 C-1.03644647 4.58997722 -1.03644647 4.58997722 0 0 Z " fill="#4A484A" transform="translate(179,383)"/>
<path d="M0 0 C0 3.08401374 -0.34209098 4.03663956 -1.8125 6.625 C-2.14894531 7.23601562 -2.48539062 7.84703125 -2.83203125 8.4765625 C-4 10 -4 10 -7 11 C-5.5140084 6.40693504 -3.14985318 3.56430755 0 0 Z " fill="#989496" transform="translate(275,152)"/>
<path d="M0 0 C0.33 0.66 0.66 1.32 1 2 C-0.65909182 6.10406925 -2.21704034 8.65195608 -6 11 C-4.54955729 6.89041233 -2.48889248 3.56741255 0 0 Z " fill="#565459" transform="translate(340,62)"/>
<path d="M0 0 C0.33 0.66 0.66 1.32 1 2 C1.99 1.67 2.98 1.34 4 1 C2.75023244 4.65316671 2.32901247 5.78065836 -1 8 C-1.125 2.25 -1.125 2.25 0 0 Z " fill="#696768" transform="translate(324,389)"/>
<path d="M0 0 C0.66 1.32 1.32 2.64 2 4 C2.66 4 3.32 4 4 4 C4 4.66 4 5.32 4 6 C-1.75 4.25 -1.75 4.25 -4 2 C-2.68 2 -1.36 2 0 2 C0 1.34 0 0.68 0 0 Z " fill="#767575" transform="translate(238,354)"/>
<path d="M0 0 C0.99 0 1.98 0 3 0 C1.92598892 2.91517292 1.22189824 4.77810176 -1 7 C-1.625 5.1875 -1.625 5.1875 -2 3 C-1.34 2.01 -0.68 1.02 0 0 Z " fill="#2E2B2E" transform="translate(267,188)"/>
<path d="M0 0 C0.75 1.75 0.75 1.75 1 4 C-0.8125 6.25 -0.8125 6.25 -3 8 C-3.66 8 -4.32 8 -5 8 C-3.62845496 5.04590299 -2.01136276 2.55991624 0 0 Z " fill="#3C3A3B" transform="translate(256,179)"/>
<path d="M0 0 C0.33 0.66 0.66 1.32 1 2 C-0.98 4.97 -0.98 4.97 -3 8 C-3.93423645 4.98968256 -4.04449911 4.13349732 -3 1 C-2.01 0.67 -1.02 0.34 0 0 Z " fill="#706E6F" transform="translate(327,96)"/>
<path d="M0 0 C0.33 1.32 0.66 2.64 1 4 C1.33 4.66 1.66 5.32 2 6 C1.34 6 0.68 6 0 6 C0 6.66 0 7.32 0 8 C-0.99 8.33 -1.98 8.66 -3 9 C-2.01 6.03 -1.02 3.06 0 0 Z " fill="#4A4A4C" transform="translate(77,494)"/>
</svg>
